<?xml version="1.0" standalone="no"?>
<!DOCTYPE svg PUBLIC "-//W3C//DTD SVG 20010904//EN"
 "http://www.w3.org/TR/2001/REC-SVG-20010904/DTD/svg10.dtd">
<svg version="1.0" xmlns="http://www.w3.org/2000/svg"
 width="32.000000pt" height="32.000000pt" viewBox="0 0 32.000000 32.000000"
 preserveAspectRatio="xMidYMid meet">

<g transform="translate(0.000000,32.000000) scale(0.100000,-0.100000)"
fill="#000000" stroke="none">
<path d="M67 313 c-2 -5 -1 -17 3 -27 6 -19 7 -19 12 2 6 21 -6 40 -15 25z"/>
<path d="M105 286 c-8 -19 -15 -43 -15 -53 1 -17 2 -17 13 -2 9 11 23 16 45
13 36 -4 41 5 12 24 -11 7 -20 19 -20 26 0 31 -21 26 -35 -8z m22 -18 c-3 -8
-6 -5 -6 6 -1 11 2 17 5 13 3 -3 4 -12 1 -19z"/>
<path d="M200 310 c0 -5 -7 -10 -15 -10 -21 0 -19 -13 5 -28 18 -11 20 -10 20
18 0 16 -2 30 -5 30 -3 0 -5 -4 -5 -10z"/>
<path d="M250 295 c0 -36 -14 -60 -28 -51 -6 3 -13 2 -16 -3 -8 -12 20 -22 39
-15 19 8 31 72 16 87 -8 8 -11 3 -11 -18z"/>
<path d="M4 298 c-4 -6 2 -19 14 -29 25 -20 29 -34 7 -26 -8 4 -17 2 -20 -3
-7 -11 31 -24 45 -15 15 9 12 31 -6 49 -8 9 -12 20 -9 26 3 5 -1 10 -9 10 -8
0 -18 -5 -22 -12z"/>
</g>
</svg>
